<?xml version="1.0" encoding="UTF-8" standalone="no"?>
<!DOCTYPE svg PUBLIC "-//W3C//DTD SVG 1.1//EN" "http://www.w3.org/Graphics/SVG/1.1/DTD/svg11.dtd">
<svg version="1.1" xmlns="http://www.w3.org/2000/svg" xmlns:xlink="http://www.w3.org/1999/xlink" preserveAspectRatio="xMidYMid meet" viewBox="0 0 640 640" width="200" height="200"><defs><path d="M16.85 371.71L16.85 187.45L31.12 187.45L130.98 371.71L111.96 371.71L31.12 211.22L31.12 371.71L16.85 371.71Z" id="a5zZwR5rKw"></path><path d="M29.93 299.2L73.92 299.2L66.78 284.93L29.93 284.93L29.93 299.2Z" id="e1lYWdxmPR"></path><path d="M220.14 284.93L141.68 284.93L141.68 204.09L220.14 204.09L220.14 187.45L130.98 187.45L130.98 309.9L202.31 309.9L220.14 309.9L220.14 371.71L130.98 371.71" id="a1N0eqRiC"></path><path d="M220.14 284.93L220.14 371.71L130.98 371.71L125.03 357.45L203.5 357.45L203.5 311.08" id="b19BrdkNJA"></path><path d="M220.14 170.8L237.97 170.8L237.97 371.71L220.14 371.71L220.14 170.8Z" id="brMBVRikZ"></path><path d="M258.18 371.71L255.8 240.94L296.22 371.71L320 371.71L320 187.45L299.79 187.45L299.79 349.13L255.8 187.45L237.97 187.45L237.97 371.71L258.18 371.71Z" id="an3yGKuLf"></path></defs><g><g><g><use xlink:href="#a5zZwR5rKw" opacity="1" fill="#5206eb" fill-opacity="1"></use><g><use xlink:href="#a5zZwR5rKw" opacity="1" fill-opacity="0" stroke="#000000" stroke-width="1" stroke-opacity="1"></use></g></g><g><use xlink:href="#e1lYWdxmPR" opacity="1" fill="#5206eb" fill-opacity="1"></use><g><use xlink:href="#e1lYWdxmPR" opacity="1" fill-opacity="0" stroke="#000000" stroke-width="1" stroke-opacity="1"></use></g></g><g><use xlink:href="#a1N0eqRiC" opacity="1" fill="#5206eb" fill-opacity="1"></use><g><use xlink:href="#a1N0eqRiC" opacity="1" fill-opacity="0" stroke="#000000" stroke-width="1" stroke-opacity="1"></use></g></g><g><g><use xlink:href="#b19BrdkNJA" opacity="1" fill-opacity="0" stroke="#000000" stroke-width="1" stroke-opacity="1"></use></g></g><g><use xlink:href="#brMBVRikZ" opacity="1" fill="#5206eb" fill-opacity="1"></use><g><use xlink:href="#brMBVRikZ" opacity="1" fill-opacity="0" stroke="#000000" stroke-width="1" stroke-opacity="1"></use></g></g><g><use xlink:href="#an3yGKuLf" opacity="1" fill="#5206eb" fill-opacity="1"></use><g><use xlink:href="#an3yGKuLf" opacity="1" fill-opacity="0" stroke="#000000" stroke-width="1" stroke-opacity="1"></use></g></g></g></g></svg>